<svg xmlns="http://www.w3.org/2000/svg" viewBox="0 0 64 64" role="img" aria-label="RoxyCloud">
  <rect width="64" height="64" rx="14" fill="#0284c7" />

  <g fill="#ffffff">
    <circle cx="24" cy="46" r="9" />
    <circle cx="39" cy="47.5" r="7.5" />
    <rect x="13" y="48" width="38" height="8" rx="4" />
  </g>

  <g stroke="#f74c00" stroke-width="3.2" stroke-linecap="round">
    <path d="M25 38l-3.5 6" />
    <path d="M32 39v6" />
    <path d="M39 38l3.5 6" />
  </g>

  <g fill="#f74c00" fill-rule="evenodd">
    <path
      d="M14 28m-6.8 0a6.8 6.8 0 1 0 13.6 0a6.8 6.8 0 1 0-13.6 0M10.6 24.2m-4.6 0a4.6 4.6 0 1 0 9.2 0a4.6 4.6 0 1 0-9.2 0"
    />
    <path
      d="M50 28m-6.8 0a6.8 6.8 0 1 0 13.6 0a6.8 6.8 0 1 0-13.6 0M53.4 24.2m-4.6 0a4.6 4.6 0 1 0 9.2 0a4.6 4.6 0 1 0-9.2 0"
    />
  </g>
  <g fill="#f74c00">
    <rect x="14" y="28.5" width="9" height="5.5" rx="2.75" />
    <rect x="41" y="28.5" width="9" height="5.5" rx="2.75" />
  </g>

  <ellipse cx="32" cy="33" rx="13.5" ry="8" fill="#f74c00" />

  <g fill="#ffffff">
    <circle cx="27.6" cy="30.5" r="2.9" />
    <circle cx="36.4" cy="30.5" r="2.9" />
  </g>
  <g fill="#0b1220">
    <circle cx="28" cy="30.8" r="1.3" />
    <circle cx="36.8" cy="30.8" r="1.3" />
  </g>
</svg>
